<svg xmlns="http://www.w3.org/2000/svg" xmlns:xlink="http://www.w3.org/1999/xlink" width="240.906" height="51.035" viewBox="0 0 240.906 51.035">
  <defs>
    <clipPath id="clip-path">
      <path id="Path_12845" data-name="Path 12845" d="M0-44.165H240.906V-95.2H0Z" transform="translate(0 95.2)" fill="none"/>
    </clipPath>
  </defs>
  <g id="Group_4275" data-name="Group 4275" transform="translate(0 95.2)">
    <g id="Group_2340" data-name="Group 2340" transform="translate(0 -95.2)" clip-path="url(#clip-path)">
      <g id="Group_2338" data-name="Group 2338">
        <path id="Path_12842" data-name="Path 12842" d="M-190.854-44.165a6.9,6.9,0,0,1-4.627-1.8,6.9,6.9,0,0,1-4.626,1.8h-22.758a6.862,6.862,0,0,1-5.875-3.321,6.867,6.867,0,0,1-5.877,3.321h-62.666c-.28,0-.561-.006-.839-.018l-.943.018h-19.066a6.744,6.744,0,0,1-3.559-1.012,6.722,6.722,0,0,1-3.555,1.012h-55.392a6.867,6.867,0,0,1-5.875-3.319,6.865,6.865,0,0,1-5.874,3.319h-12.146a6.869,6.869,0,0,1-6.862-6.862V-88.338a6.869,6.869,0,0,1,6.862-6.862h10.9a7.691,7.691,0,0,1,6.472,3.512l.652,1,.67-1.023a7.694,7.694,0,0,1,6.458-3.49h61.1a18.774,18.774,0,0,1,10.492,3.064A18.735,18.735,0,0,1-297.264-95.2h61.406a7.7,7.7,0,0,1,6.465,3.5l.662,1.013.66-1.012a7.7,7.7,0,0,1,6.465-3.5h22.028a6.883,6.883,0,0,1,4.11,1.372A6.888,6.888,0,0,1-191.36-95.2h13.5a6.788,6.788,0,0,1,5.969,3.476,6.787,6.787,0,0,1-.079,6.906l-8.767,14.669,9.276,15.617a6.788,6.788,0,0,1,.063,6.9,6.787,6.787,0,0,1-5.964,3.468Z" transform="translate(411.394 95.2)" fill="#fff"/>
      </g>
      <g id="Group_2339" data-name="Group 2339" transform="translate(3.431 3.431)">
        <path id="Path_12843" data-name="Path 12843" d="M-202.114-33.742l-10.32-17.375,9.815-16.424a3.431,3.431,0,0,0-2.945-5.191h-13.5a3.43,3.43,0,0,0-2.946,1.672l-1.163,1.948-1.163-1.948a3.431,3.431,0,0,0-2.946-1.671H-249.31a4.288,4.288,0,0,0-3.591,1.944l-3.534,5.415-3.534-5.415a4.288,4.288,0,0,0-3.591-1.944h-61.407a15.36,15.36,0,0,0-9.091,2.813,10.336,10.336,0,0,0-1.407,1.167A10.685,10.685,0,0,0-336.89-69.9a15.37,15.37,0,0,0-9.092-2.831h-61.1a4.289,4.289,0,0,0-3.587,1.938l-3.551,5.421-3.518-5.409a4.288,4.288,0,0,0-3.595-1.95h-10.9a3.431,3.431,0,0,0-3.431,3.431V-31.99a3.431,3.431,0,0,0,3.431,3.431h12.145a3.431,3.431,0,0,0,3.431-3.431v-3.448l.269.414a2.573,2.573,0,0,0,4.311.007l.309-.473v3.5a3.431,3.431,0,0,0,3.431,3.431h55.392a3.328,3.328,0,0,0,3.327-3.328l.857,1.584a3.329,3.329,0,0,0,2.927,1.744h19.066l-.052-.1a16.228,16.228,0,0,0,1.836.1h62.666a3.431,3.431,0,0,0,3.431-3.431v-3.465l.278.426a2.573,2.573,0,0,0,4.313,0l.3-.458v3.5a3.431,3.431,0,0,0,3.431,3.431h22.759a3.432,3.432,0,0,0,2.943-1.667l1.695-2.827,1.662,2.811a3.431,3.431,0,0,0,2.953,1.684h13.493a3.431,3.431,0,0,0,2.95-5.183m-131.98-14.1a2.51,2.51,0,0,0,.154-.223c.1.069.223.154.343.223Z" transform="translate(435.666 72.732)" fill="#050507"/>
      </g>
      <path id="Path_12844" data-name="Path 12844" d="M103.073-62.25h-9.44v-10.7h9.44Zm8.527-12a1.879,1.879,0,0,0-.154-.395c-.017-.069-.051-.12-.069-.189-.069-.137-.137-.257-.206-.395a2.236,2.236,0,0,0-.172-.257,3.033,3.033,0,0,0-.274-.377c-.034-.051-.086-.1-.12-.154-.1-.1-.189-.206-.292-.309-.017-.034-.051-.051-.069-.086a.3.3,0,0,1-.086-.069,3.288,3.288,0,0,0-.257-.24c-.051-.051-.1-.086-.154-.137-.086-.069-.189-.154-.292-.24a3.955,3.955,0,0,1-.326-.24,10.638,10.638,0,0,0-2.487-1.269.614.614,0,0,0-.189-.069,10.681,10.681,0,0,0-3.448-.532H93.657a10.226,10.226,0,0,0-6.107,1.87,8.791,8.791,0,0,0-1.029.858.792.792,0,0,1-.12.12,5.123,5.123,0,0,0-.412.48,1.5,1.5,0,0,0-.137.172,4.682,4.682,0,0,0-.7,1.321,4.52,4.52,0,0,0-.223,1.441v27.619H93.64v-10.67h9.435v10.67h8.715V-72.943a4.792,4.792,0,0,0-.189-1.3" transform="translate(-39.398 87.779)" fill="#ff0"/>
    </g>
    <g id="Group_2341" data-name="Group 2341" transform="translate(9.227 -86.625)">
      <path id="Path_12846" data-name="Path 12846" d="M-28.251,0V33.88H-37V14.8l-7.6,11.631L-52.164,14.8h-.017V33.88H-60.9V0h8.715L-44.6,11.648-37,0Z" transform="translate(60.896)" fill="#ff0"/>
    </g>
    <g id="Group_2352" data-name="Group 2352" transform="translate(0 -95.2)" clip-path="url(#clip-path)">
      <path id="Path_12847" data-name="Path 12847" d="M159.818-65.4H150.98v-7.549h8.838ZM167.8-50.024h-.017l-5.146-9.5h.017a9.662,9.662,0,0,0,4.2-2.3l.1-.1c.069-.051.137-.137.206-.189.189-.223.36-.429.515-.635a4.734,4.734,0,0,0,.772-1.664c.017-.051.017-.086.034-.137,0-.034.017-.1.017-.137,0-.017.017-.034.017-.051v-.051a.106.106,0,0,1,.017-.069v-.069c0-.034.018-.051.018-.086v-.154a.155.155,0,0,1,.017-.086v-7.668a4.736,4.736,0,0,0-.086-.858,2.506,2.506,0,0,0-.086-.343l-.051-.154a.87.87,0,0,0-.069-.223c-.034-.069-.051-.137-.086-.206-.051-.1-.086-.189-.137-.292-.034-.069-.086-.137-.12-.223-.017-.017-.034-.034-.034-.051a2.617,2.617,0,0,0-.189-.274,1.584,1.584,0,0,0-.086-.137c-.1-.12-.206-.257-.326-.395l-.12-.12c-.034-.051-.086-.086-.12-.137a.981.981,0,0,0-.137-.12,8.791,8.791,0,0,0-1.029-.858,10.419,10.419,0,0,0-6.141-1.887H142.237v33.88h8.749V-59.116h2.573l7.428,13.792h9.349Z" transform="translate(-65.987 87.779)" fill="#ff0"/>
      <g id="Group_2342" data-name="Group 2342" transform="translate(106.608 19.551)">
        <path id="Path_12848" data-name="Path 12848" d="M0-.038V-.02A.027.027,0,0,1,0-.028V-.081C0-.067,0-.053,0-.038" transform="translate(0.002 0.081)" fill="#ff0"/>
      </g>
      <g id="Group_2343" data-name="Group 2343" transform="translate(106.61 19.612)">
        <path id="Path_12849" data-name="Path 12849" d="M0-.073v.01A.061.061,0,0,1,0-.077c0-.026,0-.051,0-.08L0-.073" transform="translate(0.006 0.157)" fill="#ff0"/>
      </g>
      <g id="Group_2344" data-name="Group 2344" transform="translate(106.62 19.823)">
        <path id="Path_12850" data-name="Path 12850" d="M0-.04v0c0-.016,0-.03,0-.043C0-.065,0-.043,0-.021S0,.013,0,.028C0,.005,0-.016,0-.04" transform="translate(0.004 0.087)" fill="#ff0"/>
      </g>
      <g id="Group_2345" data-name="Group 2345" transform="translate(106.67 20.277)">
        <path id="Path_12851" data-name="Path 12851" d="M-.024-.131c-.01-.049-.018-.1-.028-.148v0a0,0,0,0,1,0,0c.008.049.018.1.026.148" transform="translate(0.052 0.283)" fill="#ff0"/>
      </g>
      <g id="Group_2346" data-name="Group 2346" transform="translate(107.088 21.568)">
        <path id="Path_12852" data-name="Path 12852" d="M-.012-.023A.024.024,0,0,1-.017-.032L-.025-.049a.13.13,0,0,0,.01.017l0,.009" transform="translate(0.025 0.049)" fill="#ff0"/>
      </g>
      <g id="Group_2347" data-name="Group 2347" transform="translate(107.174 21.732)">
        <path id="Path_12853" data-name="Path 12853" d="M-.01-.019a.019.019,0,0,0,0-.008A.042.042,0,0,1-.022-.041s0,.01.008.014l0,.008" transform="translate(0.022 0.041)" fill="#ff0"/>
      </g>
      <g id="Group_2348" data-name="Group 2348" transform="translate(106.606 12.196)">
        <path id="Path_12854" data-name="Path 12854" d="M-.721,0C-.8.112-.87.225-.936.34h0a4.437,4.437,0,0,0-.617,2.271V7.331c0-.02,0-.039,0-.058V2.613A4.441,4.441,0,0,1-.936.338C-.87.224-.8.112-.721,0" transform="translate(1.554)" fill="#ff0"/>
      </g>
      <g id="Group_2349" data-name="Group 2349" transform="translate(106.042 8.576)">
        <path id="Path_12855" data-name="Path 12855" d="M-15.036-7.783v-2.74h-8.658v4.53L-9.566,1.384A7.411,7.411,0,0,1-7.2,3.211,4.57,4.57,0,0,1-6.14,6.193v4.658A4.582,4.582,0,0,1-7.2,13.78c-.1.122-.2.242-.31.359-.04.044-.08.086-.122.128a8.39,8.39,0,0,1-1.165.975,10.392,10.392,0,0,1-6.116,1.865h-8.777a10.281,10.281,0,0,1-6.1-1.855c-.109-.078-.215-.155-.316-.235-.034-.026-.068-.053-.1-.08h0a.439.439,0,0,1-.047-.038c-.2-.159-.382-.322-.554-.489a5.94,5.94,0,0,1-.879-1.077q-.064-.1-.123-.206c-.06-.1-.112-.207-.162-.312s-.084-.189-.123-.284c-.014-.035-.028-.071-.041-.108-.045-.127-.086-.254-.12-.384s-.062-.26-.084-.391a4.665,4.665,0,0,1-.063-.772V8.113h8.837v2.739h8.687V6.128h0L-28.924-1.032a8.927,8.927,0,0,1-1.526-.976c-.083-.066-.163-.133-.241-.2-.127-.111-.246-.225-.358-.343-.09-.093-.177-.19-.258-.287s-.144-.179-.211-.269v0c-.081-.109-.157-.222-.227-.337-.029-.05-.059-.1-.087-.149l0-.008-.008-.014a.1.1,0,0,1-.016-.029c-.02-.036-.041-.071-.057-.108a.02.02,0,0,1,0-.01.085.085,0,0,1-.01-.017.106.106,0,0,1-.011-.022v0c-.019-.04-.039-.079-.058-.121s-.049-.11-.071-.165a0,0,0,0,1,0,0,4.441,4.441,0,0,1-.207-.642c-.012-.046-.023-.093-.032-.138l-.009-.048-.026-.147a0,0,0,0,0,0,0c-.006-.035-.011-.071-.016-.106s-.011-.079-.016-.118-.005-.054-.009-.081c0-.011,0-.021,0-.033s0-.033,0-.049,0-.045-.005-.067,0-.051,0-.078a.123.123,0,0,1,0-.028v-.02c0-.028,0-.056,0-.085v-.017a.383.383,0,0,0,0-.043v-4.743a4.427,4.427,0,0,1,.618-2.271v0c.065-.114.138-.227.215-.339a5.325,5.325,0,0,1,.411-.528c.075-.085.154-.17.236-.255a8.144,8.144,0,0,1,1.151-.971,10.284,10.284,0,0,1,6.116-1.866h8.747A10.34,10.34,0,0,1-8.8-14.9a8.4,8.4,0,0,1,1.165.978c.042.043.082.085.122.129.108.117.213.236.31.358A4.561,4.561,0,0,1-6.14-10.523v2.74Z" transform="translate(32.41 16.777)" fill="#ff0"/>
      </g>
      <g id="Group_2350" data-name="Group 2350" transform="translate(106.605 33.466)">
        <path id="Path_12856" data-name="Path 12856" d="M-.057-3.058A4.548,4.548,0,0,1-.122-3.83V-6.591h0V-3.83a4.719,4.719,0,0,0,.063.772" transform="translate(0.122 6.591)" fill="#ff0"/>
      </g>
      <g id="Group_2351" data-name="Group 2351" transform="translate(108.756 40.251)">
        <path id="Path_12857" data-name="Path 12857" d="M-.129-.1C-.163-.128-.2-.156-.229-.181l-.048-.04c.016.013.032.025.048.036v0c.033.027.065.054.1.08" transform="translate(0.277 0.221)" fill="#ff0"/>
      </g>
    </g>
    <g id="Group_2353" data-name="Group 2353" transform="translate(135.957 -86.624)">
      <path id="Path_12859" data-name="Path 12859" d="M-16.1,0V13.8h-9.891V0h-8.715V33.883h8.715v-13.8H-16.1v13.8h8.717V0Z" transform="translate(34.707)" fill="#ff0"/>
    </g>
    <g id="Group_2354" data-name="Group 2354" transform="translate(167.01 -86.624)">
      <path id="Path_12860" data-name="Path 12860" d="M-20.679,0l-7.6,11.645h0L-35.862,0h-8.713V33.883h8.713V14.8l0,0v0l7.576,11.645,7.6-11.645V33.883h8.745V0Z" transform="translate(44.575)" fill="#ff0"/>
    </g>
    <g id="Group_2355" data-name="Group 2355" transform="translate(201.494 -86.624)">
      <path id="Path_12861" data-name="Path 12861" d="M-17.456,0l-5.08,8.5L-27.618,0h-9.467l9.8,16.457-10.34,17.426h9.469l5.622-9.426,5.59,9.426h9.5l-10.34-17.426L-7.959,0Z" transform="translate(37.627)" fill="#ff0"/>
    </g>
  </g>
</svg>
